<?xml version="1.0" standalone="no"?>
<!DOCTYPE svg PUBLIC "-//W3C//DTD SVG 20010904//EN"
 "http://www.w3.org/TR/2001/REC-SVG-20010904/DTD/svg10.dtd">
<svg version="1.0" xmlns="http://www.w3.org/2000/svg"
 width="16.000000pt" height="16.000000pt" viewBox="0 0 16.000000 16.000000"
 preserveAspectRatio="xMidYMid meet">
<metadata>
Created by potrace 1.11, written by Peter Selinger 2001-2013
</metadata>
<g transform="translate(0.000000,16.000000) scale(0.006154,-0.006154)"
fill="#000000" stroke="none">
<path d="M269 2513 c-34 -79 -48 -165 -44 -281 2 -59 6 -118 9 -132 4 -14 8
-34 10 -45 11 -55 40 -153 82 -275 40 -117 45 -142 40 -191 -7 -75 -12 -85
-53 -110 -31 -19 -36 -32 -12 -35 5 -1 13 -2 19 -3 5 0 -11 -20 -36 -43 -54
-50 -71 -81 -114 -208 -36 -105 -80 -200 -104 -219 -26 -22 -18 -31 16 -19 38
13 103 52 113 68 3 5 10 10 15 10 11 0 -18 -78 -49 -133 -12 -21 -35 -75 -52
-120 -23 -58 -43 -93 -71 -119 l-39 -38 38 0 c21 0 53 9 71 20 30 19 26 11
-37 -72 l-71 -92 0 -78 c0 -89 -6 -87 103 -29 33 17 63 29 68 26 9 -6 -14 -57
-113 -254 -32 -63 -58 -120 -58 -127 0 -11 137 -13 746 -13 669 0 745 1 740
15 -5 12 1 15 27 13 57 -4 72 0 105 27 46 38 43 61 -7 56 -55 -5 -114 27 -146
81 -38 65 -34 72 23 50 29 -11 61 -12 67 -3 3 5 -10 20 -30 32 -59 38 -110
156 -129 298 -26 193 -36 343 -24 356 3 2 22 -3 44 -13 29 -12 65 -17 139 -16
157 1 248 42 391 176 139 131 184 150 249 106 57 -39 113 -143 114 -211 1 -44
9 -46 55 -16 70 46 97 112 95 233 -2 89 -28 187 -64 245 -59 94 -175 180 -299
224 -63 22 -136 74 -136 97 0 16 -87 59 -127 62 -24 2 -65 19 -99 40 -105 63
-158 80 -269 83 -56 2 -130 -3 -170 -10 -38 -8 -86 -17 -105 -20 -19 -3 -44
-8 -56 -10 -12 -2 -43 -7 -70 -11 -27 -3 -58 -7 -69 -9 -11 -2 -48 -7 -83 -11
-142 -17 -164 -12 -202 40 -36 48 -66 62 -143 69 -37 3 -84 13 -103 22 -58 28
-121 129 -140 227 -2 10 -6 26 -8 35 -14 42 -22 249 -11 281 13 42 -16 20 -36
-26z m1116 -952 c55 9 288 -105 244 -120 -7 -2 -20 -10 -27 -17 -15 -16 -77
-34 -115 -34 -69 0 -139 68 -165 162 l-10 36 34 -14 c19 -8 36 -14 39 -13z"/>
<path d="M0 189 c1 -41 2 -43 15 -25 19 25 19 40 0 56 -13 11 -15 6 -15 -31z"/>
</g>
</svg>
